<svg xmlns="http://www.w3.org/2000/svg" viewBox="0 0 500 500"><g id="freepik--background-simple--inject-3"><path d="M206.58,76c43.54,4.72,72.18,38.87,86.42,78,9.81,26.91,6.66,63.41,33.87,80.6,13.23,8.35,29.12,5.66,43.79,8.2,44.07,7.64,56.27,55.85,37.61,92.43-22,43.13-80.45,58.48-119.91,30.22-13.77-9.87-24.6-23.38-33.29-37.93-16.07-26.89-25.91-43.68-60.53-37.05-37.83,7.24-75.63-2-97.25-36.45-19.24-30.65-23-69.63-10.13-103.5C105.51,102,154.83,70.36,206.58,76Z" style="fill:#407BFF"></path><path d="M206.58,76c43.54,4.72,72.18,38.87,86.42,78,9.81,26.91,6.66,63.41,33.87,80.6,13.23,8.35,29.12,5.66,43.79,8.2,44.07,7.64,56.27,55.85,37.61,92.43-22,43.13-80.45,58.48-119.91,30.22-13.77-9.87-24.6-23.38-33.29-37.93-16.07-26.89-25.91-43.68-60.53-37.05-37.83,7.24-75.63-2-97.25-36.45-19.24-30.65-23-69.63-10.13-103.5C105.51,102,154.83,70.36,206.58,76Z" style="fill:#fff;opacity:0.9"></path></g><g id="freepik--Shadow--inject-3"><ellipse id="freepik--path--inject-3" cx="250" cy="416.24" rx="193.89" ry="11.32" style="fill:#f5f5f5"></ellipse></g><g id="freepik--Device--inject-3"><path d="M356.33,119.63V401.1a4.39,4.39,0,0,1-4.46,4.39H200.63a3.94,3.94,0,0,1-4-4V119.27a3.55,3.55,0,0,1,3.42-3.69H236a2.79,2.79,0,0,1,2.55,1.79l1.65,4a2.79,2.79,0,0,0,2.56,1.77h67.61a2.77,2.77,0,0,0,2.55-1.74l1.65-4.07a2.8,2.8,0,0,1,2.55-1.8h35.34A4,4,0,0,1,356.33,119.63Z" style="fill:#263238"></path><rect x="196.65" y="134.36" width="159.69" height="251.17" style="fill:#407BFF"></rect><rect x="196.65" y="134.36" width="159.69" height="251.17" style="fill:#fff;opacity:0.7000000000000001;isolation:isolate"></rect><rect x="215.51" y="124.94" width="2.07" height="2.75" transform="translate(433.09 252.63) rotate(180)" style="fill:#fff;opacity:0.6000000000000001;isolation:isolate"></rect><rect x="212.14" y="124.02" width="2.07" height="3.67" transform="translate(426.35 251.71) rotate(180)" style="fill:#fff;opacity:0.6000000000000001;isolation:isolate"></rect><rect x="208.78" y="123.1" width="2.07" height="4.59" transform="translate(419.62 250.79) rotate(180)" style="fill:#fff;opacity:0.6000000000000001;isolation:isolate"></rect><rect x="205.41" y="122.18" width="2.07" height="5.51" transform="translate(412.88 249.87) rotate(180)" style="fill:#fff;opacity:0.6000000000000001;isolation:isolate"></rect><rect x="336.61" y="123.93" width="1.22" height="2.75" style="fill:#fff;opacity:0.6000000000000001;isolation:isolate"></rect><rect x="338.67" y="122.93" width="9.76" height="4.77" transform="translate(687.1 250.62) rotate(180)" style="fill:#fff;opacity:0.6000000000000001;isolation:isolate"></rect><path d="M268.59,159.3h52.55a1.13,1.13,0,1,0,0-2.25H268.59a1.13,1.13,0,0,0,0,2.25Z" style="fill:#263238"></path><path d="M333.1,163.47H268.3a.83.83,0,1,0,0,1.65h64.8a.83.83,0,0,0,0-1.65Z" style="fill:#263238"></path><path d="M314.09,168.2H268.3a.83.83,0,1,0,0,1.65h45.79a.83.83,0,0,0,0-1.65Z" style="fill:#263238"></path><rect x="198.55" y="198.8" width="155.88" height="155.88" style="fill:#407BFF"></rect><polygon points="349.41 371.54 345.02 367.75 340.62 371.54 340.62 361.12 349.41 361.12 349.41 371.54" style="fill:#407BFF"></polygon><path d="M333.55,361.12h-6.62a1.64,1.64,0,0,0-1.64,1.64v4.52a1.64,1.64,0,0,0,1.64,1.64h2.25v2.62l1.71-2.62h2.66a1.63,1.63,0,0,0,1.64-1.64v-4.52A1.63,1.63,0,0,0,333.55,361.12Z" style="fill:#407BFF"></path><path d="M320.28,362.36c-1.22-2-3.58-1.25-4.8.3-1.21-1.56-3.56-2.35-4.81-.35-2.09,3.36,2.17,6.51,4.19,7.75l.57.35.58-.35C318,368.85,322.34,365.75,320.28,362.36Z" style="fill:#407BFF"></path><g style="opacity:0.30000000000000004;isolation:isolate"><polygon points="322.6 211.92 328.5 211.92 325.55 219.57 322.6 211.92" style="fill:#fff;opacity:0.7000000000000001;isolation:isolate"></polygon><polygon points="341.61 250 343.4 255.62 335.22 255.12 341.61 250" style="fill:#fff;opacity:0.7000000000000001;isolation:isolate"></polygon><polygon points="339.31 225.34 336.51 232.21 345.02 235.18 345.02 229.62 339.31 225.34" style="fill:#fff"></polygon><polygon points="228.97 210.08 233.3 210.08 228.97 215.75 228.97 210.08" style="fill:#fff"></polygon><polygon points="212.69 238.03 217.59 236.91 218.96 241.12 213.31 243.09 212.69 238.03" style="fill:#fff"></polygon><circle cx="262.27" cy="213.84" r="1.91" style="fill:#fff"></circle><path d="M234.44,341.91a3.79,3.79,0,1,1-3.78-3.79A3.78,3.78,0,0,1,234.44,341.91Z" style="fill:#fff"></path><polygon points="216.19 308.98 217.59 311.35 210.82 314.25 209.28 312.67 216.19 308.98" style="fill:#fff"></polygon><polygon points="260.36 347.78 259.04 344.43 264.19 344.43 260.36 347.78" style="fill:#fff"></polygon><polygon points="315.07 344.43 315.47 340.7 322.53 342.56 322.53 348.01 315.07 344.43" style="fill:#fff"></polygon><polygon points="330.24 325.2 336.55 325.2 333.4 328.93 330.24 325.2" style="fill:#fff"></polygon><polygon points="340.62 286.82 339.31 294.74 340.76 296.06 342.12 286.82 340.62 286.82" style="fill:#fff"></polygon><polygon points="205.23 263.62 210.82 267.68 206.82 270.62 205.23 263.62" style="fill:#fff"></polygon><circle cx="230.03" cy="230.85" r="0.63" style="fill:#fff"></circle><circle cx="310.99" cy="223.09" r="0.88" style="fill:#fff"></circle><path d="M287.37,343.71a.71.71,0,1,1-1.42,0,.71.71,0,1,1,1.42,0Z" style="fill:#fff"></path><polygon points="295.7 206.65 302.74 205.59 302.74 209.02 295.7 210.08 295.7 206.65" style="fill:#fff"></polygon><polygon points="342.12 210.08 344.43 210.08 343.27 212.91 342.12 210.08" style="fill:#fff"></polygon><polygon points="209.28 213.84 212.69 213.84 210.98 215.75 209.28 213.84" style="fill:#fff"></polygon><polygon points="338.55 347.78 338.22 341.22 343.27 343 338.55 347.78" style="fill:#fff"></polygon><polygon points="343.4 310.03 340.76 307.92 340.76 310.03 343.4 311.62 343.4 310.03" style="fill:#fff"></polygon><polygon points="208.02 288.93 210.98 291.44 209.5 293.68 205.58 290.54 208.02 288.93" style="fill:#fff"></polygon><polygon points="205.58 230.22 209.28 230.22 205.23 231.48 205.58 230.22" style="fill:#fff"></polygon></g><polygon points="270.07 224.23 276.76 217.94 283.38 224.29 291.42 219.86 296.26 227.66 305.15 225.38 307.89 234.13 317.07 234.13 317.56 243.29 326.45 245.57 324.63 254.57 332.68 258.99 328.69 267.25 335.38 273.53 329.46 280.54 334.38 288.29 326.9 293.61 329.74 302.33 321.18 305.62 321.76 314.78 312.64 315.84 310.93 324.86 301.83 323.61 297.93 331.92 289.43 328.45 283.58 335.53 276.21 330.06 268.79 335.46 263.01 328.33 254.48 331.71 250.66 323.37 241.56 324.52 239.93 315.49 230.82 314.34 231.49 305.19 222.96 301.82 225.88 293.12 218.45 287.73 223.45 280.03 217.59 272.96 224.35 266.75 220.44 258.44 228.53 254.1 226.8 245.09 235.71 242.9 236.28 233.74 245.46 233.83 248.29 225.1 257.16 227.47 262.07 219.72 270.07 224.23" style="fill:#407BFF"></polygon><path d="M330.46,282.54l5.92-7-6.69-6.28,4-8.26-8.05-4.42,1.82-9-8.89-2.28-.49-9.16h-9.18l-2.74-8.75-8.89,2.28-4.84-7.8-8,4.43-6.62-6.35-6.69,6.29-8-4.51-4.91,7.76-8.87-2.38-2.83,8.73-9.18-.09-.57,9.16-8.91,2.19,1.73,9-8.09,4.34,3.91,8.31L218.59,275l5.86,7.07-5,7.7,7.43,5.39-2.92,8.7,8.53,3.37-.67,9.15,9.11,1.15,1.62,9,9.11-1.15,3.82,8.34,8.53-3.38,5.78,7.13,7.42-5.4,7.37,5.47,5.85-7.08,8.5,3.47,3.9-8.31,9.09,1.25,1.72-9,9.12-1.06-.59-9.16,8.57-3.29-2.84-8.73,7.48-5.31ZM328.62,289l-6.61,4.7,2.51,7.71-7.57,2.9.52,8.09-8.06.94-1.51,8-8-1.1-3.45,7.34-7.5-3.06-5.17,6.24-6.51-4.83-6.55,4.77-5.1-6.3-7.54,3-3.37-7.37-8.05,1-1.43-8-8-1,.6-8.08-7.54-3,2.58-7.68-6.56-4.76,4.42-6.8-5.18-6.24,6-5.49L228,262.6l7.15-3.83-1.53-8,7.88-1.93.5-8.09,8.1.08,2.5-7.71,7.83,2.1,4.34-6.85,7.07,4,5.9-5.56,5.85,5.61,7.1-3.91,4.28,6.89,7.85-2,2.42,7.74h8.11l.43,8.1,7.85,2-1.6,7.94,7.1,3.9-3.52,7.3,5.91,5.55-5.23,6.19Z" style="opacity:0.4;isolation:isolate"></path><polygon points="270.07 224.23 276.76 217.94 283.38 224.29 291.42 219.86 296.26 227.66 305.15 225.38 307.89 234.13 317.07 234.13 317.56 243.29 326.45 245.57 324.63 254.57 332.68 258.99 328.69 267.25 335.38 273.53 329.46 280.54 334.38 288.29 326.9 293.61 329.74 302.33 321.18 305.62 321.76 314.78 312.64 315.84 310.93 324.86 301.83 323.61 297.93 331.92 289.43 328.45 283.58 335.53 276.21 330.06 268.79 335.46 263.01 328.33 254.48 331.71 250.66 323.37 241.56 324.52 239.93 315.49 230.82 314.34 231.49 305.19 222.96 301.82 225.88 293.12 218.45 287.73 223.45 280.03 217.59 272.96 224.35 266.75 220.44 258.44 228.53 254.1 226.8 245.09 235.71 242.9 236.28 233.74 245.46 233.83 248.29 225.1 257.16 227.47 262.07 219.72 270.07 224.23" style="opacity:0.4;isolation:isolate"></polygon><path d="M329.46,280.54l5.92-7-6.69-6.28,4-8.26-8.05-4.42,1.82-9-8.89-2.28-.49-9.16h-9.18l-2.74-8.75-8.89,2.28-4.84-7.8-8,4.43-6.62-6.35-6.69,6.29-8-4.51-4.91,7.76-8.87-2.38-2.83,8.73-9.18-.09-.57,9.16-8.91,2.19,1.73,9-8.09,4.34,3.91,8.31L217.59,273l5.86,7.07-5,7.7,7.43,5.39-2.92,8.7,8.53,3.37-.67,9.15,9.11,1.15,1.62,9,9.11-1.15,3.82,8.34,8.53-3.38,5.78,7.13,7.42-5.4,7.37,5.47,5.85-7.08,8.5,3.47,3.9-8.31,9.09,1.25,1.72-9,9.12-1.06-.59-9.16,8.57-3.29-2.84-8.73,7.48-5.31ZM327.62,287l-6.61,4.7,2.51,7.71-7.57,2.9.52,8.09-8.06.94-1.51,8-8-1.1-3.45,7.34-7.5-3.06-5.17,6.24-6.51-4.83-6.55,4.77-5.1-6.3-7.54,3-3.37-7.37-8.05,1-1.43-8-8-1,.6-8.08-7.54-3,2.58-7.68-6.56-4.76,4.42-6.8-5.18-6.24,6-5.49L227,260.6l7.15-3.83-1.53-8,7.88-1.93.5-8.09,8.1.08,2.5-7.71,7.83,2.1,4.34-6.85,7.07,4,5.9-5.56,5.85,5.61,7.1-3.91,4.28,6.89,7.85-2,2.42,7.74h8.11l.43,8.1,7.85,2-1.6,7.94,7.1,3.9-3.52,7.3,5.91,5.55-5.23,6.19Z" style="fill:#407BFF"></path><path d="M329.46,280.54l5.92-7-6.69-6.28,4-8.26-8.05-4.42,1.82-9-8.89-2.28-.49-9.16h-9.18l-2.74-8.75-8.89,2.28-4.84-7.8-8,4.43-6.62-6.35-6.69,6.29-8-4.51-4.91,7.76-8.87-2.38-2.83,8.73-9.18-.09-.57,9.16-8.91,2.19,1.73,9-8.09,4.34,3.91,8.31L217.59,273l5.86,7.07-5,7.7,7.43,5.39-2.92,8.7,8.53,3.37-.67,9.15,9.11,1.15,1.62,9,9.11-1.15,3.82,8.34,8.53-3.38,5.78,7.13,7.42-5.4,7.37,5.47,5.85-7.08,8.5,3.47,3.9-8.31,9.09,1.25,1.72-9,9.12-1.06-.59-9.16,8.57-3.29-2.84-8.73,7.48-5.31ZM327.62,287l-6.61,4.7,2.51,7.71-7.57,2.9.52,8.09-8.06.94-1.51,8-8-1.1-3.45,7.34-7.5-3.06-5.17,6.24-6.51-4.83-6.55,4.77-5.1-6.3-7.54,3-3.37-7.37-8.05,1-1.43-8-8-1,.6-8.08-7.54-3,2.58-7.68-6.56-4.76,4.42-6.8-5.18-6.24,6-5.49L227,260.6l7.15-3.83-1.53-8,7.88-1.93.5-8.09,8.1.08,2.5-7.71,7.83,2.1,4.34-6.85,7.07,4,5.9-5.56,5.85,5.61,7.1-3.91,4.28,6.89,7.85-2,2.42,7.74h8.11l.43,8.1,7.85,2-1.6,7.94,7.1,3.9-3.52,7.3,5.91,5.55-5.23,6.19Z" style="fill:#fff;opacity:0.6000000000000001;isolation:isolate"></path><path d="M247.1,273.81s5.1-.88,7.61,0,13.13,19,13.13,19,20.6-28.34,37.07-40.73c0,0-21.37,19.14-33.76,51.27,0,0-4.17,1.84-7.12-1.45-.85-1-10.42-17.31-12.27-17.92-1.45-.49-6.13-.25-6.13-.25Z" style="opacity:0.4;isolation:isolate"></path><path d="M246.1,272.81s5.1-.88,7.61,0,13.13,19,13.13,19,20.6-28.34,37.07-40.73c0,0-21.37,19.14-33.76,51.27,0,0-4.17,1.84-7.12-1.45-.85-1-10.42-17.31-12.27-17.92-1.45-.49-6.13-.25-6.13-.25Z" style="fill:#fff"></path></g><g id="freepik--Avatar--inject-3"><path d="M253.79,168.15a23.92,23.92,0,0,1-3,11.72l-.44.75a23.88,23.88,0,0,1-5.41,6.22l-.12.1a24,24,0,0,1-6.78,3.84h0a23.91,23.91,0,0,1-8.28,1.46,21.83,21.83,0,0,1-2.69-.15,23.27,23.27,0,0,1-4.42-.91,23.78,23.78,0,0,1-9.38-5.48h0a24.11,24.11,0,1,1,40.63-17.55Z" style="fill:#407BFF"></path><path d="M250.75,179.87l-.44.75a64.45,64.45,0,0,0-16.37,1.85l-1.79.44-1.22.32c-1.53.41-3,.84-4.25,1.25l-.57.19-.41.13h0c-1.49.5-2.76.95-3.73,1.32-1.45.55-2.28.91-2.28.91a18,18,0,0,1-1.3-1.92l-.06-.11h0c-2.17-3.64-6-12-4.2-24,2-13.35,13.07-12.5,17-11.76a11.47,11.47,0,0,1,1.39.32s12.39,2.92,12.85,10.64a25.83,25.83,0,0,0,.38,3.08A96.34,96.34,0,0,0,250.75,179.87Z" style="fill:#263238"></path><path d="M238,190.78h0a23.91,23.91,0,0,1-8.28,1.46,21.83,21.83,0,0,1-2.69-.15,23.27,23.27,0,0,1-4.42-.91l-.77-6.29-.37-3,16.49,2.34,0,1.41.05,4.14v1Z" style="fill:#407BFF"></path><path d="M244.78,186.94a24,24,0,0,1-6.78,3.84h0a23.91,23.91,0,0,1-8.28,1.46,21.83,21.83,0,0,1-2.69-.15,23.27,23.27,0,0,1-4.42-.91,23.78,23.78,0,0,1-9.38-5.48h0c.76-.12,1.53-.21,2.3-.31l.19,0c.91-.1,1.82-.19,2.73-.26,1.08-.09,2.15-.16,3.23-.2h.19l1.32-.05,1.57,0h1.84q3,0,6.08.22l2.07.17,1.09.11,1.58.24.35.05.24,0h0l1.86.32c.29.05.58.12.87.16l.55.11.59.11,1,.2.7.14Z" style="fill:#263238"></path><path d="M233.78,191c-6.87-1.17-8.83-4.21-8.83-4.21,2.94-2.54,2.59-6.49,2-9a14.45,14.45,0,0,0-.76-2.29l8.25,1.9a24.62,24.62,0,0,0-.47,3.48,10.59,10.59,0,0,0,.13,2.59c.46,2.5,1.88,2.6,1.88,2.6C237.29,188.92,233.78,191,233.78,191Z" style="fill:#e4897b"></path><path d="M233.94,180.94a10.59,10.59,0,0,0,.13,2.59c-3.28-.58-5.68-3.32-7.15-5.68a14.45,14.45,0,0,0-.76-2.29l8.25,1.9A24.62,24.62,0,0,0,233.94,180.94Z" style="opacity:0.2;isolation:isolate"></path><path d="M232.82,153.82c7.81.34,10.15,4.63,10.37,12.7.29,10.08-2.25,17.13-11.92,14.57C218.13,177.6,219.85,153.26,232.82,153.82Z" style="fill:#e4897b"></path><path d="M238.16,165.86a16.61,16.61,0,0,0,2.14,3.34,2.18,2.18,0,0,1-2.1.8Z" style="fill:#de5753"></path><path d="M230.13,161a.36.36,0,0,1-.24-.09.35.35,0,0,1,0-.51,4.37,4.37,0,0,1,3.77-1.15.36.36,0,0,1,.29.42.36.36,0,0,1-.42.29,3.75,3.75,0,0,0-3.1.92A.36.36,0,0,1,230.13,161Z" style="fill:#263238"></path><path d="M242.34,160.68a.38.38,0,0,1-.21-.07,3.32,3.32,0,0,0-2.76-.73.36.36,0,0,1-.46-.23.37.37,0,0,1,.23-.46,4,4,0,0,1,3.41.83.37.37,0,0,1,.08.51A.38.38,0,0,1,242.34,160.68Z" style="fill:#263238"></path><path d="M223.72,166.62s3.93-6.26,3.59-11.24c0,0,15.75-5.66,15.84,10.08,0,0,2.11-13.88-11.3-14.77s-14.2,18.76-7.52,24.91C224.33,175.6,221.29,170.53,223.72,166.62Z" style="fill:#263238"></path><path d="M224.93,168.32a3.44,3.44,0,0,0-3.55-3.29c-2.44.16-3.8,5.08,2.17,6.53C224.4,171.77,224.92,171,224.93,168.32Z" style="fill:#e4897b"></path><path d="M238.35,172.3a20.12,20.12,0,0,0-1.42,2.48l-.49-.14c-2.18-.68-3-1.71-3.19-2.65a2.94,2.94,0,0,1,.05-1.4,2.77,2.77,0,0,1,.3-.74,10.79,10.79,0,0,0,4,2.21C238.06,172.22,238.35,172.3,238.35,172.3Z" style="fill:#263238"></path><path d="M237.61,172.06l-.44.72c-2-.64-3.42-1.36-3.87-2.19a2.77,2.77,0,0,1,.3-.74A10.79,10.79,0,0,0,237.61,172.06Z" style="fill:#fff"></path><path d="M236.44,174.64c-2.18-.68-3-1.71-3.19-2.65a7.27,7.27,0,0,1,2.28,1.23A2.66,2.66,0,0,1,236.44,174.64Z" style="fill:#de5753"></path><path d="M232.64,154.4s-3.7,12.72-11.78,12.21,5.1-16.25,5.1-16.25,13.41-4.41,19.63,2.88-2.44,12.22-2.44,12.22S244.07,155.53,232.64,154.4Z" style="fill:#263238"></path><path d="M226.64,165.36a.25.25,0,0,1-.23-.16.25.25,0,0,1,.13-.32c6.3-2.7,5.81-11.29,5.81-11.38a.25.25,0,0,1,.23-.26.26.26,0,0,1,.27.23c0,.09.51,9-6.11,11.87Z" style="fill:#263238"></path><path d="M233.56,165.42c.07.6-.2,1.13-.6,1.18s-.79-.41-.86-1,.2-1.13.6-1.18S233.49,164.81,233.56,165.42Z" style="fill:#263238"></path><path d="M232.53,164.46l1.26-.67S233.26,165,232.53,164.46Z" style="fill:#263238"></path><path d="M241.05,164.4c.07.6-.2,1.13-.6,1.18s-.79-.4-.86-1,.2-1.13.6-1.18S241,163.8,241.05,164.4Z" style="fill:#263238"></path><path d="M240,163.44l1.25-.67S240.76,164,240,163.44Z" style="fill:#263238"></path><path d="M244.9,186.84l-.12.1a24,24,0,0,1-6.78,3.84h0l0-.71v-.31l-1.31-2.65.67-1.58.57-1.32.58,1.26Z" style="fill:#407BFF"></path><path d="M244.9,186.84l-.12.1a24,24,0,0,1-6.78,3.84h0l0-.71v-.31l-1.31-2.65.67-1.58.57-1.32.58,1.26Z" style="fill:#fff;opacity:0.6000000000000001;isolation:isolate"></path><path d="M229.87,186.91l-2.73,3.43L227,192.1a23.27,23.27,0,0,1-4.42-.91,23.78,23.78,0,0,1-9.38-5.48l2.27-.32.19,0,4.81-.68,1-2.81,4.9,2.92,3.53,2.11Z" style="fill:#407BFF"></path><path d="M229.86,186.91l-2.72,3.43L227,192.1a23.27,23.27,0,0,1-4.42-.91,23.78,23.78,0,0,1-9.38-5.48l2.46-.34,4.81-.67h0l1-2.81,4.9,2.92Z" style="fill:#fff;opacity:0.6000000000000001;isolation:isolate"></path><path d="M255.44,188.53a6.55,6.55,0,1,1-6.55-6.55A6.55,6.55,0,0,1,255.44,188.53Z" style="fill:#fff"></path><path d="M254.48,188.53a5.59,5.59,0,1,1-5.59-5.59A5.59,5.59,0,0,1,254.48,188.53Z" style="fill:#263238"></path><polygon points="248.67 191.44 245.69 188.81 246.35 188.06 248.51 189.96 251.35 186.06 252.16 186.65 248.67 191.44" style="fill:#fff"></polygon></g><g id="freepik--Plant--inject-3"><path d="M388.08,388.55s-5.83-12.71.83-25.24,8.58-15.48,4.34-18.05-6.19,10-6.19,10-3.58-8.67-.62-17.73,4.8-23.83.77-25.42-.77,18.42-4.27,25.24a58.6,58.6,0,0,1-3.42-14.87c-.49-7.28.27-18.91-2.92-21.89s-5.22-.92-2.09,15.15a167.65,167.65,0,0,1,3.1,29.13s-6.91-21.08-11.55-21.69-4.63,6.21-.66,12.13,11.63,16.53,12.89,22c0,0-7.59-15.86-14.42-11s5.94,14.44,11.63,17.91,9.65,25.16,9.65,25.16Z" style="fill:#407BFF"></path><path d="M388.08,388.55s-5.83-12.71.83-25.24,8.58-15.48,4.34-18.05-6.19,10-6.19,10-3.58-8.67-.62-17.73,4.8-23.83.77-25.42-.77,18.42-4.27,25.24a58.6,58.6,0,0,1-3.42-14.87c-.49-7.28.27-18.91-2.92-21.89s-5.22-.92-2.09,15.15a167.65,167.65,0,0,1,3.1,29.13s-6.91-21.08-11.55-21.69-4.63,6.21-.66,12.13,11.63,16.53,12.89,22c0,0-7.59-15.86-14.42-11s5.94,14.44,11.63,17.91,9.65,25.16,9.65,25.16Z" style="opacity:0.2;isolation:isolate"></path><path d="M383.48,393.77s5.67-12.8-1.14-25.23-8.77-15.35-4.55-18,6.31,9.93,6.31,9.93,3.47-8.72.41-17.74-5.09-23.76-1.08-25.4,1,18.41,4.57,25.17a58.85,58.85,0,0,0,3.25-14.92c.39-7.29-.5-18.9,2.65-21.93s5.21-1,2.27,15.12A168.52,168.52,0,0,0,393.42,350s6.66-21.18,11.29-21.86,4.71,6.14.81,12.12-11.44,16.7-12.63,22.17c0,0,7.4-16,14.28-11.21s-5.76,14.53-11.41,18.07-9.34,25.31-9.34,25.31Z" style="fill:#407BFF"></path><polygon points="409.64 384.64 362.78 384.64 366.57 418.18 405.85 418.18 409.64 384.64" style="fill:#263238"></polygon></g></svg>